<svg width="18" height="13" viewBox="0 0 18 13" fill="none" xmlns="http://www.w3.org/2000/svg">
<path d="M6.43158 12.3204L6.43138 12.3206C6.41396 12.338 6.39329 12.3518 6.37052 12.3613C6.34777 12.3707 6.32337 12.3755 6.29872 12.3755C6.27408 12.3755 6.24968 12.3707 6.22692 12.3613C6.20416 12.3518 6.18348 12.338 6.16607 12.3206L6.16587 12.3204L1.35337 7.50785C1.31813 7.47262 1.29834 7.42483 1.29834 7.375C1.29834 7.32517 1.31813 7.27738 1.35337 7.24215C1.3886 7.20691 1.43639 7.18712 1.48622 7.18712C1.53604 7.18712 1.58381 7.2069 1.61904 7.24211C1.61905 7.24212 1.61906 7.24214 1.61908 7.24215L5.94513 11.5691L6.2987 11.9227L6.65229 11.5691L17.1659 1.05465C17.2011 1.01941 17.2489 0.999619 17.2987 0.999619C17.3486 0.999619 17.3963 1.01941 17.4316 1.05465C17.4668 1.08988 17.4866 1.13767 17.4866 1.1875C17.4866 1.23733 17.4668 1.28512 17.4316 1.32035L6.43158 12.3204Z" fill="#9E78CF" stock="#9E78CF"/>
</svg>
